<svg width="97" height="39" viewBox="0 0 97 39" fill="none" xmlns="http://www.w3.org/2000/svg">
<path d="M17.9176 37.0132H16.0413V24.1121C13.24 22.7081 0.73996 16.1118 1.08351 7.47575C1.21565 3.95245 2.98627 1.38282 5.94611 0.402659C9.48734 -0.762944 13.7421 0.667568 16.2791 3.84648L14.8256 5.01209C12.7907 2.44246 9.30235 1.25037 6.5275 2.17755C4.30762 2.89281 3.03912 4.80016 2.93341 7.52873C2.61629 15.8204 17.2569 22.5756 17.3891 22.6286L17.944 22.867V30.3904C17.9176 30.3904 17.9176 36.9602 17.9176 36.9602V37.0132Z" fill="#DC1A15"/>
<path d="M21.1417 21.8868C20.9303 21.8868 20.6925 21.8868 20.481 21.8339C14.8521 20.8537 15.2749 13.1713 15.5392 10.8401C15.8034 8.53539 16.9134 2.97228 21.6174 0.826514C24.7094 -0.577507 28.462 -0.0211967 30.7083 2.17755C32.1618 3.58157 32.9811 5.67436 32.9547 7.87311H31.0783C31.0783 6.17769 30.4705 4.53525 29.4134 3.5021C27.6956 1.80668 24.8151 1.40932 22.3838 2.49545C19.7147 3.71403 17.8383 6.89295 17.3891 10.999C17.1776 12.9329 16.7812 19.2642 20.7982 19.953C21.406 20.059 22.0402 19.847 22.4631 19.6351C25.0265 18.4165 27.3521 16.1383 29.3341 12.8799C29.1756 12.6945 28.9906 12.509 28.832 12.3236C27.1935 10.5487 25.1322 8.34995 23.1766 9.11819C22.6216 9.33011 22.1988 9.91292 22.0931 10.6017C22.0667 10.8931 22.0402 11.6348 22.6481 12.0852C23.018 12.3766 23.388 12.3236 23.5994 12.2441C23.9694 12.0852 24.2601 11.7408 24.3658 11.2904L26.1893 11.6348C25.9779 12.6945 25.2644 13.5952 24.2865 13.966C23.3616 14.3369 22.3574 14.178 21.5381 13.5687C20.5603 12.8269 20.0582 11.6348 20.2432 10.3368C20.4282 8.95924 21.2739 7.82013 22.4895 7.34329C25.6343 6.09822 28.277 8.93275 30.1798 10.999C30.5234 11.3699 30.8669 11.7408 31.1576 12.0057L31.6861 12.509L31.3162 13.1448C29.0434 17.0655 26.3214 19.8205 23.2559 21.2775C22.5424 21.6219 21.8024 21.7809 21.1153 21.7809L21.1417 21.8868Z" fill="#0E7834"/>
<path d="M10.703 14.2309C10.3594 14.2309 10.0159 14.178 9.67234 14.0455C8.69453 13.6746 7.981 12.7739 7.76958 11.7143L9.59305 11.3699C9.67234 11.8203 9.96303 12.1646 10.3594 12.3236C10.5973 12.4031 10.9408 12.456 11.3108 12.1646C11.9186 11.7143 11.9186 10.9726 11.8658 10.6812C11.7865 9.99239 11.3637 9.40959 10.8087 9.19766C8.85309 8.42942 6.8182 10.6282 5.15329 12.3766C4.80974 12.7474 4.46619 13.1183 4.14906 13.4362L2.85413 12.1117C3.14483 11.8203 3.46196 11.4759 3.80551 11.1315C5.73469 9.0652 8.35098 6.23067 11.4958 7.47575C12.685 7.95258 13.5571 9.0917 13.7421 10.4692C13.9007 11.7673 13.425 12.9594 12.4472 13.7011C11.9186 14.0985 11.3372 14.2839 10.7294 14.2839L10.703 14.2309Z" fill="#DC1A15"/>
<path d="M20.1375 32.3773H19.6354V30.4964H20.1375C21.406 30.4964 22.5952 30.3375 23.6523 30.0196C28.1713 28.695 29.9948 25.3836 30.6555 23.6617C22.8859 23.7412 17.759 30.152 17.7062 30.2315L16.9662 31.1587L16.2263 30.2315C16.1734 30.152 11.0465 23.7412 3.27697 23.6617C3.93764 25.3836 5.76112 28.695 10.2802 30.0196C11.3372 30.3375 12.5265 30.4964 13.795 30.4964H14.2971V32.3773H13.795C12.3415 32.3773 10.9937 32.1918 9.77804 31.8474C2.56343 29.7282 1.18922 23.2644 1.13637 22.9995L0.92495 21.9663L1.98204 21.8868C9.64591 21.3305 15.0899 26.2578 16.9662 28.2977C18.869 26.2578 24.2865 21.357 31.9504 21.8868L33.0075 21.9663L32.7961 22.9995C32.7432 23.2644 31.369 29.7547 24.128 31.8474C22.9123 32.2183 21.5381 32.3773 20.1111 32.3773H20.1375Z" fill="#DC1A15"/>
<path d="M25.8457 39H24.1544C23.8109 38.2318 22.5952 36.3244 21.036 36.3244C19.4768 36.3244 17.8119 38.9735 17.7855 39H16.0941C15.7506 38.2318 14.5349 36.3244 12.9757 36.3244C11.4165 36.3244 10.0952 38.2583 9.72519 39H8.03385C7.6903 38.2318 6.47465 36.3244 4.91545 36.3244C3.35625 36.3244 2.03489 38.2583 1.66491 39L0 38.1788C0.0792814 38.0198 1.8499 34.47 4.91545 34.47C7.981 34.47 8.11313 35.7681 8.90595 36.8542C9.72519 35.7946 11.0994 34.47 12.9493 34.47C14.7992 34.47 16.147 35.7681 16.9398 36.8542C17.759 35.7946 19.1332 34.47 20.9832 34.47C22.833 34.47 24.1808 35.7681 24.9736 36.8542C25.7929 35.7946 27.1671 34.47 29.017 34.47C32.0826 34.47 33.7739 38.0463 33.8267 38.2053L32.1354 38.9735C31.7919 38.2318 30.5762 36.3244 29.017 36.3244C27.4578 36.3244 26.1364 38.2583 25.7665 39H25.8457Z" fill="#DC1A15"/>
<path d="M46.0889 27.291V25.887H50.1059V31.2646L48.7317 31.4501L48.3881 30.9467C47.1989 31.715 45.3754 31.768 44.0276 31.4501C41.6756 30.8673 40.2221 28.854 40.2485 26.4433C40.275 24.0326 41.1999 22.4696 43.1027 21.5954C45.1904 20.6418 47.5953 20.8007 49.7359 21.7544L49.2338 23.3173C46.9875 22.0193 43.7105 22.0193 42.7063 24.7214C41.702 27.4234 42.3627 27.1585 42.8384 28.2977C43.7369 30.3375 46.3532 30.5759 48.0974 29.5427V27.291H46.0625H46.0889Z" fill="#21150C"/>
<path d="M71.8026 30.4964C71.1154 31.3176 70.2434 31.5825 69.2127 31.5825C67.9178 31.5825 66.6757 30.9997 66.0943 29.8341C65.5129 28.6685 65.5129 27.3705 65.8829 26.1784C66.3586 24.7743 67.5742 23.9001 69.0277 23.8207C70.4812 23.7412 70.8512 23.9531 71.7233 24.5889V20.8007H73.7317V30.099L73.8374 31.3706H72.1197L71.8026 30.5229V30.4964ZM70.4019 30.152C71.1154 29.9666 71.6176 29.4368 71.6704 28.7215C71.7233 28.0062 71.8025 27.132 71.6176 26.3903C71.4326 25.6486 70.534 25.2777 69.8469 25.2247C69.1598 25.1717 68.3406 25.5691 67.9706 26.3108C67.5742 27.132 67.5478 28.1122 67.8649 28.9599C68.2349 29.9931 69.292 30.4699 70.3755 30.1785L70.4019 30.152Z" fill="#21150C"/>
<path d="M67.0192 14.5488L70.1112 18.602L67.7063 18.6284L65.3279 15.3965L64.3765 15.3171V18.6284H62.3416V7.76715H64.3765V14.019H65.3279L67.5742 11.105L69.8469 11.1315L67.0192 14.5488Z" fill="#21150C"/>
<path d="M53.7792 18.39C52.7222 18.7079 51.6651 18.7079 50.6608 18.39C48.9959 17.8602 47.9917 16.3767 47.9917 14.6283C47.9917 13.1183 48.7581 11.7143 50.2116 11.158C51.6651 10.6017 52.6957 10.6547 53.8849 11.0255C55.6027 11.5554 56.6069 13.1713 56.4748 14.9197C56.3427 16.6681 55.3913 17.8867 53.7792 18.3635V18.39ZM54.1756 15.8999C54.5192 14.9197 54.4663 13.7806 53.8585 12.9329C53.0921 11.8468 51.3479 11.8468 50.5816 12.9329C49.8152 13.9925 49.8945 15.476 50.608 16.5092C51.0837 17.1714 51.8765 17.3569 52.6164 17.2509C53.3564 17.1449 53.9114 16.6681 54.1756 15.8999Z" fill="#21150C"/>
<path d="M80.9992 18.0456C79.7043 18.7874 78.0658 18.8139 76.6916 18.2311C75.2381 17.5953 74.4981 16.1913 74.4981 14.6548C74.4981 12.9064 75.5288 11.4494 77.2201 10.999C78.2508 10.7341 79.3607 10.7341 80.3385 11.052C81.9241 11.5554 82.8227 12.9064 82.8491 14.5488C82.8491 15.9793 82.2941 17.3039 80.9728 18.0456H80.9992ZM80.3385 16.4827C80.9199 15.6085 80.9728 14.5223 80.6556 13.5687C80.3385 12.615 79.5457 12.1117 78.6472 12.1382C77.7486 12.1646 76.9823 12.7474 76.718 13.6746C76.4537 14.6018 76.5066 15.4495 76.9294 16.2443C77.3522 17.039 77.9337 17.2509 78.5943 17.2774C79.255 17.3039 79.9421 17.092 80.3649 16.4562L80.3385 16.4827Z" fill="#21150C"/>
<path d="M46.9082 12.456L46.9346 13.9925L42.5741 14.019L42.5477 18.549L40.3278 18.5225V7.76715H47.6217V9.30362H42.5741V12.456H46.9082Z" fill="#21150C"/>
<path d="M93.2878 17.2244C94.4242 17.4099 95.3756 17.1714 96.4327 16.6946L96.6969 17.9927C95.3491 18.6284 93.8164 18.8139 92.3364 18.4695C90.8565 18.1251 89.5352 16.6151 89.4823 14.8667C89.4559 13.3567 90.0901 11.8997 91.4908 11.211C92.4422 10.7606 93.5785 10.7076 94.6092 10.9461C96.5384 11.3964 97.1726 13.2508 96.9612 15.1051H91.5965C91.5436 16.1118 92.2043 17.0125 93.2878 17.1979V17.2244ZM95.0849 13.9925C95.217 12.8004 94.5299 12.0587 93.5257 12.0322C92.3893 11.9792 91.5436 12.8534 91.5965 13.9925H95.0849Z" fill="#21150C"/>
<path d="M86.0996 31.556L84.0647 31.5825V25.1187L83.9326 24.0326H85.7825L86.0203 24.9333C86.9453 23.9531 88.2667 23.6352 89.5616 23.9266C90.698 24.1651 91.4908 25.0922 91.4908 26.3108V31.5825H89.4295V26.7082C89.4295 25.834 88.7688 25.2512 87.9231 25.2512C87.2624 25.2512 86.5225 25.5956 86.0996 26.1784V31.556Z" fill="#21150C"/>
<path d="M53.4357 31.5295C52.405 31.3706 51.6386 30.6818 51.4801 29.7547C51.3215 28.8275 51.7972 27.8208 52.6957 27.397C53.5942 26.9731 54.0435 26.9466 54.7835 26.9201L56.4219 26.8671C56.4748 26.4698 56.4748 26.0724 56.2634 25.728C55.7084 24.7479 53.3828 25.2512 52.4843 25.8075L52.035 24.5359C53.4621 23.8472 55.0213 23.6087 56.5541 24.0326C58.0869 24.4565 58.3776 25.1982 58.404 26.3108L58.4568 29.9666C58.4568 30.3904 58.6947 30.8143 58.6683 31.3441L56.9769 31.3971L56.5541 30.5494C55.7613 31.4236 54.6249 31.715 53.4357 31.5295ZM56.4484 28.0062C55.4441 28.0062 53.7528 27.8738 53.4621 29.0394C53.1714 30.205 53.4885 29.9136 53.8585 30.152C54.757 30.6818 55.8934 30.311 56.4484 29.4103V28.0062Z" fill="#21150C"/>
<path d="M78.9907 30.152C80.1271 30.3904 81.1313 30.152 82.2148 29.6222C82.3205 30.0725 82.3998 30.4964 82.4527 30.9467C80.4442 31.9269 76.9294 31.9269 75.7666 29.7282C74.6038 27.5294 75.1588 27.4234 75.5023 26.2843C76.163 24.1915 78.515 23.4498 80.4442 23.9531C82.347 24.4565 82.9812 26.2049 82.717 28.0857H77.3523C77.3787 29.0924 77.9865 29.9401 79.0172 30.152H78.9907ZM80.8671 26.9731C80.8671 26.4433 80.8142 25.9135 80.4442 25.5161C80.0742 25.1187 79.07 24.9068 78.4358 25.1982C77.8015 25.4896 77.3787 26.1254 77.3523 26.9731H80.8671Z" fill="#21150C"/>
<path d="M60.9938 17.3569V18.4695C60.3596 18.6549 59.7253 18.7079 59.0382 18.549C58.3511 18.39 57.8754 17.8072 57.8754 17.0655V7.76715H59.8839V16.6151C59.8839 16.8271 60.016 17.1449 60.1482 17.2244C60.2803 17.3039 60.5974 17.3304 60.9674 17.3834L60.9938 17.3569Z" fill="#21150C"/>
<path d="M74.1281 17.3304C74.181 17.5688 74.1546 18.0986 74.1281 18.496C73.441 18.6549 72.8861 18.7079 72.2254 18.549C71.5647 18.39 71.089 17.9132 71.089 17.2509V7.76715C71.0626 7.76715 73.0711 7.76715 73.0711 7.76715V16.6416C73.0711 16.8271 73.1768 17.1185 73.2825 17.1979C73.3882 17.2774 73.6525 17.3304 74.1546 17.3569L74.1281 17.3304Z" fill="#21150C"/>
<path d="M62.3681 31.5825H60.3596V26.2843C60.3596 25.5161 60.2803 24.8538 60.201 24.0591H62.0509L62.3681 25.0922C63.0552 24.1121 64.1123 23.5558 65.275 23.9796L65.1693 25.5691C64.4558 25.4366 63.7687 25.4101 63.1344 25.887C62.5002 26.3638 62.4473 26.6552 62.4473 27.1056V31.609L62.3681 31.5825Z" fill="#21150C"/>
<path d="M86.3111 18.5225H84.2762C84.2762 18.549 84.2762 14.2309 84.2762 14.2309C84.2762 13.1713 84.2497 12.1646 84.1704 11.0785H85.9146L86.2582 12.1382C86.9189 11.158 87.9495 10.5752 89.1123 10.9461L89.0595 12.562C88.5574 12.509 88.1081 12.456 87.6588 12.562C86.9453 12.7474 86.3639 13.3832 86.3639 14.1515V18.549L86.3111 18.5225Z" fill="#21150C"/>
</svg>
