<svg width="34" height="39" viewBox="0 0 34 39" fill="none" xmlns="http://www.w3.org/2000/svg">
<path d="M17.9176 37.0132H16.0413V24.1121C13.24 22.7081 0.73996 16.1118 1.08351 7.47575C1.21565 3.95245 2.98627 1.38282 5.94611 0.402659C9.48734 -0.762944 13.7421 0.667568 16.2791 3.84648L14.8256 5.01209C12.7907 2.44246 9.30235 1.25037 6.5275 2.17755C4.30762 2.89281 3.03912 4.80016 2.93341 7.52873C2.61629 15.8204 17.2569 22.5756 17.3891 22.6286L17.944 22.867V30.3904C17.9176 30.3904 17.9176 36.9602 17.9176 36.9602V37.0132Z" fill="#DC1A15"/>
<path d="M21.1417 21.8868C20.9303 21.8868 20.6925 21.8868 20.481 21.8339C14.8521 20.8537 15.2749 13.1713 15.5392 10.8401C15.8034 8.53539 16.9134 2.97228 21.6174 0.826514C24.7094 -0.577507 28.462 -0.0211966 30.7083 2.17755C32.1618 3.58157 32.9811 5.67436 32.9547 7.87311H31.0783C31.0783 6.17769 30.4705 4.53525 29.4134 3.5021C27.6956 1.80668 24.8151 1.40932 22.3838 2.49545C19.7147 3.71403 17.8383 6.89295 17.3891 10.999C17.1776 12.9329 16.7812 19.2642 20.7982 19.953C21.406 20.059 22.0402 19.847 22.4631 19.6351C25.0265 18.4165 27.3521 16.1383 29.3341 12.8799C29.1756 12.6945 28.9906 12.509 28.832 12.3236C27.1935 10.5487 25.1322 8.34995 23.1766 9.11819C22.6216 9.33011 22.1988 9.91292 22.0931 10.6017C22.0667 10.8931 22.0402 11.6348 22.6481 12.0852C23.018 12.3766 23.388 12.3236 23.5994 12.2441C23.9694 12.0852 24.2601 11.7408 24.3658 11.2904L26.1893 11.6348C25.9779 12.6945 25.2644 13.5952 24.2865 13.966C23.3616 14.3369 22.3574 14.178 21.5381 13.5687C20.5603 12.8269 20.0582 11.6348 20.2432 10.3368C20.4282 8.95924 21.2739 7.82013 22.4895 7.34329C25.6343 6.09822 28.277 8.93275 30.1798 10.999C30.5234 11.3699 30.8669 11.7408 31.1576 12.0057L31.6861 12.509L31.3162 13.1448C29.0434 17.0655 26.3214 19.8205 23.2559 21.2775C22.5424 21.6219 21.8024 21.7809 21.1153 21.7809L21.1417 21.8868Z" fill="#0E7834"/>
<path d="M10.703 14.2309C10.3594 14.2309 10.0159 14.178 9.67234 14.0455C8.69453 13.6746 7.981 12.7739 7.76958 11.7143L9.59305 11.3699C9.67234 11.8203 9.96303 12.1646 10.3594 12.3236C10.5973 12.4031 10.9408 12.456 11.3108 12.1646C11.9186 11.7143 11.9186 10.9726 11.8658 10.6812C11.7865 9.99239 11.3637 9.40959 10.8087 9.19766C8.85309 8.42942 6.8182 10.6282 5.15329 12.3766C4.80974 12.7474 4.46619 13.1183 4.14906 13.4362L2.85413 12.1117C3.14483 11.8203 3.46196 11.4759 3.80551 11.1315C5.73469 9.0652 8.35098 6.23067 11.4958 7.47575C12.685 7.95258 13.5571 9.0917 13.7421 10.4692C13.9007 11.7673 13.425 12.9594 12.4472 13.7011C11.9186 14.0985 11.3372 14.2839 10.7294 14.2839L10.703 14.2309Z" fill="#DC1A15"/>
<path d="M20.1375 32.3773H19.6354V30.4964H20.1375C21.406 30.4964 22.5952 30.3375 23.6523 30.0196C28.1713 28.695 29.9948 25.3836 30.6555 23.6617C22.8859 23.7412 17.759 30.152 17.7062 30.2315L16.9662 31.1587L16.2263 30.2315C16.1734 30.152 11.0465 23.7412 3.27697 23.6617C3.93764 25.3836 5.76112 28.695 10.2802 30.0196C11.3372 30.3375 12.5265 30.4964 13.795 30.4964H14.2971V32.3773H13.795C12.3415 32.3773 10.9937 32.1918 9.77804 31.8474C2.56343 29.7282 1.18922 23.2644 1.13637 22.9995L0.92495 21.9663L1.98204 21.8868C9.64591 21.3305 15.0899 26.2578 16.9662 28.2977C18.869 26.2578 24.2865 21.357 31.9504 21.8868L33.0075 21.9663L32.7961 22.9995C32.7432 23.2644 31.369 29.7547 24.128 31.8474C22.9123 32.2183 21.5381 32.3773 20.1111 32.3773H20.1375Z" fill="#DC1A15"/>
<path d="M25.8457 39H24.1544C23.8109 38.2318 22.5952 36.3244 21.036 36.3244C19.4768 36.3244 17.8119 38.9735 17.7855 39H16.0941C15.7506 38.2318 14.5349 36.3244 12.9757 36.3244C11.4165 36.3244 10.0952 38.2583 9.72519 39H8.03385C7.6903 38.2318 6.47465 36.3244 4.91545 36.3244C3.35625 36.3244 2.03489 38.2583 1.66491 39L0 38.1788C0.0792814 38.0198 1.8499 34.47 4.91545 34.47C7.981 34.47 8.11313 35.7681 8.90595 36.8542C9.72519 35.7946 11.0994 34.47 12.9493 34.47C14.7992 34.47 16.147 35.7681 16.9398 36.8542C17.759 35.7946 19.1333 34.47 20.9832 34.47C22.8331 34.47 24.1808 35.7681 24.9736 36.8542C25.7929 35.7946 27.1671 34.47 29.017 34.47C32.0826 34.47 33.7739 38.0463 33.8267 38.2053L32.1354 38.9735C31.7919 38.2318 30.5762 36.3244 29.017 36.3244C27.4578 36.3244 26.1364 38.2583 25.7665 39H25.8457Z" fill="#DC1A15"/>
</svg>
